<svg width="38" height="38" viewBox="0 0 38 38" fill="none" xmlns="http://www.w3.org/2000/svg">
<path d="M8.00374 5.1387C7.89945 5.02115 7.77287 4.92546 7.63134 4.85719C7.4898 4.78892 7.33612 4.74941 7.1792 4.74097C7.02229 4.73253 6.86526 4.75532 6.71721 4.80801C6.56917 4.86071 6.43305 4.94226 6.31676 5.04794C6.20046 5.15363 6.1063 5.28135 6.03973 5.42369C5.97316 5.56604 5.9355 5.72018 5.92895 5.87719C5.92239 6.03419 5.94705 6.19094 6.00152 6.33834C6.05598 6.48574 6.13916 6.62087 6.24624 6.73589L9.10217 9.87831C3.71092 13.187 1.39233 18.2873 1.28991 18.5189C1.22239 18.6707 1.1875 18.8351 1.1875 19.0013C1.1875 19.1675 1.22239 19.3318 1.28991 19.4837C1.34186 19.601 2.59913 22.3886 5.3942 25.1837C9.1185 28.9065 13.8225 30.8748 19 30.8748C21.6609 30.89 24.2949 30.3421 26.7291 29.2672L29.9948 32.8609C30.099 32.9784 30.2256 33.0741 30.3672 33.1424C30.5087 33.2107 30.6624 33.2502 30.8193 33.2586C30.9762 33.2671 31.1332 33.2443 31.2813 33.1916C31.4293 33.1389 31.5654 33.0573 31.6817 32.9516C31.798 32.846 31.8922 32.7182 31.9588 32.5759C32.0253 32.4336 32.063 32.2794 32.0695 32.1224C32.0761 31.9654 32.0514 31.8087 31.997 31.6612C31.9425 31.5138 31.8593 31.3787 31.7523 31.2637L8.00374 5.1387ZM15.0293 16.3962L21.2147 23.2021C20.2832 23.6921 19.2154 23.8589 18.1789 23.6762C17.1424 23.4936 16.1959 22.9719 15.488 22.193C14.7801 21.4141 14.351 20.4222 14.268 19.373C14.1849 18.3238 14.4527 17.2767 15.0293 16.3962ZM19 28.4998C14.4311 28.4998 10.4396 26.8388 7.13538 23.5642C5.77919 22.2164 4.62569 20.6789 3.71092 18.9998C4.4071 17.695 6.6292 14.0435 10.7394 11.67L13.4113 14.6016C12.3769 15.9264 11.8442 17.5743 11.9072 19.2539C11.9703 20.9335 12.6252 22.5367 13.756 23.7802C14.8869 25.0237 16.421 25.8274 18.0871 26.0492C19.7532 26.271 21.4441 25.8966 22.8608 24.9922L25.0473 27.3969C23.1176 28.1372 21.0668 28.5113 19 28.4998ZM19.8906 14.3344C19.5812 14.2754 19.3079 14.0958 19.1308 13.8352C18.9538 13.5747 18.8875 13.2545 18.9465 12.945C19.0056 12.6356 19.1852 12.3623 19.4457 12.1852C19.7063 12.0082 20.0265 11.9419 20.3359 12.001C21.8494 12.2944 23.2275 13.0692 24.2646 14.2098C25.3017 15.3505 25.9423 16.7959 26.0908 18.3303C26.1202 18.6439 26.0237 18.9563 25.8227 19.1987C25.6218 19.4412 25.3327 19.5939 25.0191 19.6232C24.9821 19.6256 24.9449 19.6256 24.9078 19.6232C24.611 19.6245 24.3245 19.5146 24.1047 19.3151C23.8849 19.1157 23.7478 18.8411 23.7203 18.5456C23.6203 17.5249 23.1936 16.5638 22.5037 15.805C21.8137 15.0463 20.8972 14.5305 19.8906 14.3344ZM36.7056 19.4837C36.6433 19.6232 35.1396 22.9527 31.7537 25.9853C31.638 26.0922 31.5022 26.175 31.3542 26.2289C31.2062 26.2829 31.0489 26.3068 30.8916 26.2993C30.7342 26.2919 30.5799 26.2532 30.4377 26.1855C30.2954 26.1179 30.168 26.0226 30.063 25.9052C29.9579 25.7878 29.8772 25.6507 29.8257 25.5018C29.7741 25.353 29.7527 25.1954 29.7626 25.0381C29.7726 24.8809 29.8137 24.7273 29.8836 24.5861C29.9536 24.4449 30.0509 24.3191 30.1699 24.2159C31.8309 22.7235 33.2263 20.9597 34.2965 18.9998C33.3797 17.3192 32.2236 15.7807 30.8646 14.4324C27.5604 11.1608 23.5689 9.49979 19 9.49979C18.0373 9.49864 17.0762 9.57658 16.1262 9.73284C15.9718 9.76016 15.8134 9.7566 15.6603 9.72237C15.5072 9.68814 15.3624 9.62391 15.2343 9.53341C15.1062 9.4429 14.9973 9.3279 14.9138 9.19506C14.8304 9.06221 14.7741 8.91415 14.7482 8.75943C14.7223 8.60471 14.7274 8.4464 14.763 8.29363C14.7987 8.14086 14.8642 7.99667 14.9559 7.86939C15.0476 7.7421 15.1636 7.63425 15.2972 7.55205C15.4308 7.46986 15.5794 7.41495 15.7344 7.3905C16.8137 7.21228 17.906 7.12341 19 7.12479C24.1775 7.12479 28.8815 9.09308 32.6058 12.8174C35.4008 15.6125 36.6581 18.4016 36.7101 18.5189C36.7776 18.6707 36.8125 18.8351 36.8125 19.0013C36.8125 19.1675 36.7776 19.3318 36.7101 19.4837H36.7056Z" fill="black"/>
</svg>
