<svg width="43" height="43" viewBox="0 0 43 43" fill="none" xmlns="http://www.w3.org/2000/svg">
<path d="M41.5403 20.9558C41.4815 20.8231 40.0589 17.667 36.896 14.5041C32.6817 10.2898 27.3587 8.0625 21.5 8.0625C15.6412 8.0625 10.3183 10.2898 6.10397 14.5041C2.94112 17.667 1.5117 20.8281 1.45963 20.9558C1.38323 21.1276 1.34375 21.3136 1.34375 21.5017C1.34375 21.6897 1.38323 21.8757 1.45963 22.0476C1.51842 22.1803 2.94112 25.3347 6.10397 28.4976C10.3183 32.7102 15.6412 34.9375 21.5 34.9375C27.3587 34.9375 32.6817 32.7102 36.896 28.4976C40.0589 25.3347 41.4815 22.1803 41.5403 22.0476C41.6167 21.8757 41.6562 21.6897 41.6562 21.5017C41.6562 21.3136 41.6167 21.1276 41.5403 20.9558ZM21.5 32.25C16.3299 32.25 11.8132 30.3704 8.07424 26.665C6.54014 25.1393 5.23494 23.3996 4.1992 21.5C5.23454 19.6001 6.53979 17.8604 8.07424 16.335C11.8132 12.6296 16.3299 10.75 21.5 10.75C26.6701 10.75 31.1867 12.6296 34.9257 16.335C36.4628 17.8601 37.7709 19.5999 38.8092 21.5C37.5981 23.7609 32.3222 32.25 21.5 32.25ZM21.5 13.4375C19.9054 13.4375 18.3466 13.9104 17.0207 14.7963C15.6948 15.6822 14.6614 16.9414 14.0512 18.4146C13.441 19.8878 13.2813 21.5089 13.5924 23.0729C13.9035 24.6369 14.6714 26.0735 15.7989 27.201C16.9265 28.3286 18.3631 29.0965 19.9271 29.4076C21.491 29.7187 23.1121 29.559 24.5854 28.9488C26.0586 28.3385 27.3178 27.3052 28.2037 25.9793C29.0896 24.6534 29.5625 23.0946 29.5625 21.5C29.5603 19.3624 28.7101 17.3129 27.1986 15.8014C25.687 14.2899 23.6376 13.4397 21.5 13.4375ZM21.5 26.875C20.4369 26.875 19.3977 26.5598 18.5138 25.9691C17.6299 25.3785 16.941 24.5391 16.5341 23.5569C16.1273 22.5748 16.0209 21.494 16.2283 20.4514C16.4357 19.4087 16.9476 18.451 17.6993 17.6993C18.451 16.9476 19.4087 16.4357 20.4514 16.2283C21.494 16.0209 22.5748 16.1273 23.5569 16.5341C24.5391 16.941 25.3785 17.6299 25.9691 18.5138C26.5597 19.3977 26.875 20.4369 26.875 21.5C26.875 22.9255 26.3087 24.2927 25.3007 25.3007C24.2927 26.3087 22.9255 26.875 21.5 26.875Z" fill="black"/>
</svg>
